<mxfile host="65bd71144e">
    <diagram id="audVbTGesFcV79gaD4Qk" name="第 1 页">
        <mxGraphModel dx="692" dy="457" grid="1" gridSize="10" guides="1" tooltips="1" connect="1" arrows="1" fold="1" page="1" pageScale="1" pageWidth="827" pageHeight="1169" math="0" shadow="0">
            <root>
                <mxCell id="0"/>
                <mxCell id="1" parent="0"/>
                <mxCell id="2" value="Horizontal Tree Layout" style="swimlane;startSize=20;horizontal=0;childLayout=treeLayout;horizontalTree=1;resizable=0;containerType=tree;fontSize=12;" parent="1" vertex="1">
                    <mxGeometry x="30" y="20" width="410" height="160" as="geometry"/>
                </mxCell>
                <mxCell id="3" value="专员业绩报表" style="whiteSpace=wrap;html=1;" parent="2" vertex="1">
                    <mxGeometry x="40" y="60" width="100" height="40" as="geometry"/>
                </mxCell>
                <mxCell id="4" value="全部标签(未确定)，专员下拉框，平台下拉框多(筛选参数以改)" style="whiteSpace=wrap;html=1;" parent="2" vertex="1">
                    <mxGeometry x="190" y="20" width="190" height="40" as="geometry"/>
                </mxCell>
                <mxCell id="5" value="" style="edgeStyle=elbowEdgeStyle;elbow=vertical;html=1;rounded=1;curved=0;sourcePerimeterSpacing=0;targetPerimeterSpacing=0;startSize=6;endSize=6;" parent="2" source="3" target="4" edge="1">
                    <mxGeometry relative="1" as="geometry"/>
                </mxCell>
                <mxCell id="6" value="新增添加好友记录筛选条件和表格等待和后端确定字段" style="whiteSpace=wrap;html=1;" parent="2" vertex="1">
                    <mxGeometry x="190" y="100" width="200" height="40" as="geometry"/>
                </mxCell>
                <mxCell id="7" value="" style="edgeStyle=elbowEdgeStyle;elbow=vertical;html=1;rounded=1;curved=0;sourcePerimeterSpacing=0;targetPerimeterSpacing=0;startSize=6;endSize=6;" parent="2" source="3" target="6" edge="1">
                    <mxGeometry relative="1" as="geometry"/>
                </mxCell>
                <mxCell id="10" value="Horizontal Tree Layout" style="swimlane;startSize=20;horizontal=0;childLayout=treeLayout;horizontalTree=1;resizable=0;containerType=tree;fontSize=12;" parent="1" vertex="1">
                    <mxGeometry x="30" y="200" width="740" height="240" as="geometry"/>
                </mxCell>
                <mxCell id="11" value="客户分配" style="whiteSpace=wrap;html=1;" parent="10" vertex="1">
                    <mxGeometry x="40" y="100" width="100" height="40" as="geometry"/>
                </mxCell>
                <mxCell id="12" value="待分配页面同步sass会员页面和参数字段完成" style="whiteSpace=wrap;html=1;" parent="10" vertex="1">
                    <mxGeometry x="190" y="20" width="190" height="40" as="geometry"/>
                </mxCell>
                <mxCell id="13" value="" style="edgeStyle=elbowEdgeStyle;elbow=vertical;html=1;rounded=1;curved=0;sourcePerimeterSpacing=0;targetPerimeterSpacing=0;startSize=6;endSize=6;" parent="10" source="11" target="12" edge="1">
                    <mxGeometry relative="1" as="geometry"/>
                </mxCell>
                <mxCell id="14" value="待分配和已分配导出，和最后导入时间查询(前端完成)" style="whiteSpace=wrap;html=1;" parent="10" vertex="1">
                    <mxGeometry x="190" y="100" width="240" height="40" as="geometry"/>
                </mxCell>
                <mxCell id="15" value="" style="edgeStyle=elbowEdgeStyle;elbow=vertical;html=1;rounded=1;curved=0;sourcePerimeterSpacing=0;targetPerimeterSpacing=0;startSize=6;endSize=6;" parent="10" source="11" target="14" edge="1">
                    <mxGeometry relative="1" as="geometry"/>
                </mxCell>
                <mxCell id="16" value="" style="edgeStyle=elbowEdgeStyle;elbow=vertical;html=1;rounded=1;curved=0;sourcePerimeterSpacing=0;targetPerimeterSpacing=0;startSize=6;endSize=6;" edge="1" target="17" source="11" parent="10">
                    <mxGeometry relative="1" as="geometry">
                        <mxPoint x="170" y="240" as="sourcePoint"/>
                    </mxGeometry>
                </mxCell>
                <mxCell id="17" value="新增暂缓池页面，查询条件，和彻底删除，导出释放功能" style="whiteSpace=wrap;html=1;" vertex="1" parent="10">
                    <mxGeometry x="190" y="180" width="240" height="40" as="geometry"/>
                </mxCell>
                <mxCell id="22" value="" style="edgeStyle=elbowEdgeStyle;elbow=vertical;html=1;rounded=1;curved=0;sourcePerimeterSpacing=0;targetPerimeterSpacing=0;startSize=6;endSize=6;" edge="1" target="23" source="14" parent="10">
                    <mxGeometry relative="1" as="geometry">
                        <mxPoint x="170" y="320" as="sourcePoint"/>
                    </mxGeometry>
                </mxCell>
                <mxCell id="23" value="待分配添加暂缓按钮和弹窗，已分配，增加一件转移和一键收回" style="whiteSpace=wrap;html=1;" vertex="1" parent="10">
                    <mxGeometry x="480" y="100" width="240" height="40" as="geometry"/>
                </mxCell>
            </root>
        </mxGraphModel>
    </diagram>
</mxfile>